<?xml version="1.0" encoding="utf-8"?>
<!-- Generator: Adobe Illustrator 18.1.0, SVG Export Plug-In . SVG Version: 6.00 Build 0)  -->
<svg version="1.1" id="Layer_1" xmlns="http://www.w3.org/2000/svg" xmlns:xlink="http://www.w3.org/1999/xlink" x="0px" y="0px"
	 viewBox="0 0 178.5 128.1" enable-background="new 0 0 178.5 128.1" xml:space="preserve">
<path fill="#FED700" d="M178.5,8.3v103.3c0,9.1-7.4,16.5-16.5,16.5H16.5c-9.1,0-16.5-7.4-16.5-16.5V31.9c0-9.1,7.4-16.5,16.5-16.5
	h106.3V8.3c0-4.6,3.7-8.3,8.3-8.3h39C174.8,0,178.5,3.7,178.5,8.3z"/>
<path fill="#FED700" d="M119.7,12.6H73.1V7.6c0-3.1,2.5-5.6,5.6-5.6h35.4c3.1,0,5.6,2.5,5.6,5.6V12.6z"/>
<path fill="#FED700" d="M69.7,12.6H23.1V7.6c0-3.1,2.5-5.6,5.6-5.6h35.4c3.1,0,5.6,2.5,5.6,5.6V12.6z"/>
</svg>
