<?xml version="1.0" encoding="utf-8"?>
<!-- Generator: Adobe Illustrator 18.1.0, SVG Export Plug-In . SVG Version: 6.00 Build 0)  -->
<svg version="1.1" id="Layer_1" xmlns="http://www.w3.org/2000/svg" xmlns:xlink="http://www.w3.org/1999/xlink" x="0px" y="0px"
	 viewBox="0.6 66.6 285 204.5" enable-background="new 0.6 66.6 285 204.5" xml:space="preserve">
<path fill="#FED700" d="M285.6,79.9v164.9c0,14.5-11.8,26.3-26.3,26.3H26.9c-14.5,0-26.3-11.8-26.3-26.3V117.5
	c0-14.5,11.8-26.3,26.3-26.3h169.7V79.9c0-7.3,5.9-13.3,13.3-13.3h62.3C279.7,66.6,285.6,72.5,285.6,79.9z"/>
<path fill="#FED700" d="M191.7,86.7h-74.4v-8c0-4.9,4-8.9,8.9-8.9h56.5c4.9,0,8.9,4,8.9,8.9V86.7z"/>
<path fill="#FED700" d="M111.9,86.7H37.5v-8c0-4.9,4-8.9,8.9-8.9h56.5c4.9,0,8.9,4,8.9,8.9L111.9,86.7L111.9,86.7z"/>
</svg>
