<?xml version="1.0" encoding="utf-8"?>
<!-- Generator: Adobe Illustrator 18.1.0, SVG Export Plug-In . SVG Version: 6.00 Build 0)  -->
<svg version="1.1" id="Layer_1" xmlns="http://www.w3.org/2000/svg" xmlns:xlink="http://www.w3.org/1999/xlink" x="0px" y="0px"
	 viewBox="0 0 157 124.7" enable-background="new 0 0 157 124.7" xml:space="preserve">
<path fill="#FED700" d="M132.8,94.7H24.8c-7.2,0-13-5.8-13-13V13c0-7.2,5.8-13,13-13h108.1c7.2,0,13,5.8,13,13v68.7
	C145.8,88.9,140,94.7,132.8,94.7z"/>
<path fill="#C3A707" d="M122.2,87.1H35.4c-7.2,0-13-5.8-13-13V20.5c0-7.2,5.8-13,13-13h86.7c7.2,0,13,5.8,13,13v53.7
	C135.1,81.3,129.3,87.1,122.2,87.1z"/>
<path fill="#FED700" d="M141.4,124.7H15.6c-10.2,0-17.7-8-15.1-16.2l3.2-10.2c1.8-5.7,8-9.7,15.1-9.7h118.9c6.9,0,13,3.8,15,9.3
	l3.6,10.2C159.3,116.4,151.8,124.7,141.4,124.7z"/>
</svg>
