<?xml version="1.0" encoding="utf-8"?>
<!-- Generator: Adobe Illustrator 18.1.0, SVG Export Plug-In . SVG Version: 6.00 Build 0)  -->
<svg version="1.1" id="Layer_1" xmlns="http://www.w3.org/2000/svg" xmlns:xlink="http://www.w3.org/1999/xlink" x="0px" y="0px"
	 viewBox="1.7 14.5 286.2 227.3" enable-background="new 1.7 14.5 286.2 227.3" xml:space="preserve">
<path fill="#FED700" d="M243.8,187.2H46.9c-13.1,0-23.7-10.6-23.7-23.7V38.2c0-13.1,10.6-23.7,23.7-23.7H244
	c13.1,0,23.7,10.6,23.7,23.7v125.2C267.5,176.6,256.9,187.2,243.8,187.2z"/>
<path fill="#C3A707" d="M224.5,173.3H66.3c-13.1,0-23.7-10.6-23.7-23.7V51.9c0-13.1,10.6-23.7,23.7-23.7h158
	c13.1,0,23.7,10.6,23.7,23.7v97.9C248,162.7,237.4,173.3,224.5,173.3z"/>
<path fill="#FED700" d="M259.5,241.8H30.2c-18.6,0-32.3-14.6-27.5-29.5l5.8-18.6C11.8,183.3,23.1,176,36,176h216.7
	c12.6,0,23.7,6.9,27.3,17l6.6,18.6C292.1,226.7,278.4,241.8,259.5,241.8z"/>
</svg>
