<?xml version="1.0" encoding="utf-8"?>
<!-- Generator: Adobe Illustrator 18.1.0, SVG Export Plug-In . SVG Version: 6.00 Build 0)  -->
<svg version="1.1" id="Layer_1" xmlns="http://www.w3.org/2000/svg" xmlns:xlink="http://www.w3.org/1999/xlink" x="0px" y="0px"
	 viewBox="0 0 181.8 103.1" enable-background="new 0 0 181.8 103.1" xml:space="preserve">
<path fill="#FED700" d="M107.6,78.3H22.7c-7.2,0-13-5.8-13-13V13c0-7.2,5.8-13,13-13h84.9c7.2,0,13,5.8,13,13v52.3
	C120.5,72.5,114.7,78.3,107.6,78.3z"/>
<path fill="#C3A707" d="M98.8,72H31.5c-7.2,0-13-5.8-13-13V19.2c0-7.2,5.8-13,13-13h67.2c7.2,0,13,5.8,13,13v39.9
	C111.7,66.2,105.9,72,98.8,72z"/>
<path fill="#FED700" d="M116.9,103.1h-104c-8.5,0-14.6-6.6-12.5-13.4l2.6-8.4c1.5-4.7,6.6-8,12.5-8h98.3c5.7,0,10.8,3.1,12.4,7.6
	l3,8.4C131.7,96.2,125.5,103.1,116.9,103.1z"/>
<path fill="#FFFFFF" d="M131.9,78.3H47.1c-7.2,0-13-5.8-13-13V13c0-7.2,5.8-13,13-13h84.9c7.2,0,13,5.8,13,13v52.3
	C144.9,72.5,139.1,78.3,131.9,78.3z"/>
<path fill="#FFFFFF" d="M117.3,72H50.1c-7.2,0-13-5.8-13-13V19.2c0-7.2,5.8-13,13-13h67.2c7.2,0,13,5.8,13,13v39.9
	C130.3,66.2,124.5,72,117.3,72z"/>
<path fill="#FFFFFF" d="M137.9,103.1H34c-8.5,0-14.6-6.6-12.5-13.4l2.6-8.4c1.5-4.7,6.6-8,12.5-8h98.3c5.7,0,10.8,3.1,12.4,7.6
	l3,8.4C152.8,96.2,146.6,103.1,137.9,103.1z"/>
<path fill="#FED700" d="M136.5,78.3H51.6c-7.2,0-13-5.8-13-13V13c0-7.2,5.8-13,13-13h84.9c7.2,0,13,5.8,13,13v52.3
	C149.5,72.5,143.7,78.3,136.5,78.3z"/>
<path fill="#C3A707" d="M126,72H58.8c-7.2,0-13-5.8-13-13V19.2c0-7.2,5.8-13,13-13H126c7.2,0,13,5.8,13,13v39.9
	C139,66.2,133.2,72,126,72z"/>
<path fill="#FED700" d="M145.8,103.1h-104c-8.5,0-14.6-6.6-12.5-13.4l2.6-8.4c1.5-4.7,6.6-8,12.5-8h98.3c5.7,0,10.8,3.1,12.4,7.6
	l3,8.4C160.7,96.2,154.4,103.1,145.8,103.1z"/>
<path fill="#FFFFFF" d="M154.2,79.1H69.3c-7.2,0-13-5.8-13-13V13.8c0-7.2,5.8-13,13-13h84.9c7.2,0,13,5.8,13,13v52.3
	C167.1,73.3,161.3,79.1,154.2,79.1z"/>
<path fill="#FFFFFF" d="M140.4,72H73.2c-7.2,0-13-5.8-13-13V19.2c0-7.2,5.8-13,13-13h67.2c7.2,0,13,5.8,13,13v39.9
	C153.3,66.2,147.5,72,140.4,72z"/>
<path fill="#FFFFFF" d="M161,103.1H57c-8.5,0-14.6-6.6-12.5-13.4l2.6-8.4c1.5-4.7,6.6-8,12.5-8H158c5.7,0,10.8,3.1,12.4,7.6l3,8.4
	C175.8,96.2,169.6,103.1,161,103.1z"/>
<path fill="#FED700" d="M159.6,78.3H74.7c-7.2,0-13-5.8-13-13V13c0-7.2,5.8-13,13-13h84.9c7.2,0,13,5.8,13,13v52.3
	C172.5,72.5,166.7,78.3,159.6,78.3z"/>
<path fill="#C3A707" d="M150.8,72H83.5c-7.2,0-13-5.8-13-13V19.2c0-7.2,5.8-13,13-13h67.2c7.2,0,13,5.8,13,13v39.9
	C163.7,66.2,157.9,72,150.8,72z"/>
<path fill="#FED700" d="M168.9,103.1h-104c-8.5,0-14.6-6.6-12.5-13.4l2.6-8.4c1.5-4.7,6.6-8,12.5-8h98.3c5.7,0,10.8,3.1,12.4,7.6
	l3,8.4C183.7,96.2,177.5,103.1,168.9,103.1z"/>
</svg>
