<?xml version="1.0" encoding="utf-8"?>
<!-- Generator: Adobe Illustrator 18.1.0, SVG Export Plug-In . SVG Version: 6.00 Build 0)  -->
<svg version="1.1" id="Layer_1" xmlns="http://www.w3.org/2000/svg" xmlns:xlink="http://www.w3.org/1999/xlink" x="0px" y="0px"
	 viewBox="-0.5 -2.2 288.9 163.9" enable-background="new -0.5 -2.2 288.9 163.9" xml:space="preserve">
<path fill="#FED700" d="M170.6,122.3H35.6c-11.4,0-20.7-9.2-20.7-20.7V18.5C15,7,24.2-2.2,35.6-2.2h134.9c11.4,0,20.7,9.2,20.7,20.7
	v83.1C191.1,113,181.9,122.3,170.6,122.3z"/>
<path fill="#C3A707" d="M156.6,112.3h-107C38.2,112.3,29,103,29,91.6V28.3c0-11.4,9.2-20.7,20.7-20.7h106.8
	c11.4,0,20.7,9.2,20.7,20.7v63.4C177.1,103,167.9,112.3,156.6,112.3z"/>
<path fill="#FED700" d="M185.4,161.7H20.1c-13.5,0-23.2-10.5-19.9-21.3L4.3,127c2.4-7.5,10.5-12.7,19.9-12.7h156.2
	c9.1,0,17.2,4.9,19.7,12.1l4.8,13.4C208.9,150.7,199,161.7,185.4,161.7z"/>
<path fill="#FFFFFF" d="M209.2,122.3H74.4c-11.4,0-20.7-9.2-20.7-20.7V18.5C53.8,7,63-2.2,74.4-2.2h134.9C220.8-2.2,230,7,230,18.5
	v83.1C229.9,113,220.7,122.3,209.2,122.3z"/>
<path fill="#FFFFFF" d="M186,112.3H79.2c-11.4,0-20.7-9.2-20.7-20.7V28.3c0-11.4,9.2-20.7,20.7-20.7H186c11.4,0,20.7,9.2,20.7,20.7
	v63.4C206.7,103,197.5,112.3,186,112.3z"/>
<path fill="#FFFFFF" d="M218.7,161.7H53.6c-13.5,0-23.2-10.5-19.9-21.3l4.1-13.4c2.4-7.5,10.5-12.7,19.9-12.7H214
	c9.1,0,17.2,4.9,19.7,12.1l4.8,13.4C242.4,150.7,232.6,161.7,218.7,161.7z"/>
<path fill="#FED700" d="M216.5,122.3H81.6c-11.4,0-20.7-9.2-20.7-20.7V18.5C60.9,7,70.1-2.2,81.6-2.2h134.9
	c11.4,0,20.7,9.2,20.7,20.7v83.1C237.2,113,228,122.3,216.5,122.3z"/>
<path fill="#C3A707" d="M199.8,112.3H93c-11.4,0-20.7-9.2-20.7-20.7V28.3c0-11.4,9.2-20.7,20.7-20.7h106.8
	c11.4,0,20.7,9.2,20.7,20.7v63.4C220.5,103,211.3,112.3,199.8,112.3z"/>
<path fill="#FED700" d="M231.3,161.7H66c-13.5,0-23.2-10.5-19.9-21.3l4.1-13.4c2.4-7.5,10.5-12.7,19.9-12.7h156.2
	c9.1,0,17.2,4.9,19.7,12.1l4.8,13.4C255,150.7,245,161.7,231.3,161.7z"/>
<path fill="#FFFFFF" d="M244.7,123.5H109.7c-11.4,0-20.7-9.2-20.7-20.7V19.7c0-11.4,9.2-20.7,20.7-20.7h134.9
	c11.4,0,20.7,9.2,20.7,20.7v83.1C265.2,114.3,255.9,123.5,244.7,123.5z"/>
<path fill="#FFFFFF" d="M222.7,112.3H115.9c-11.4,0-20.7-9.2-20.7-20.7V28.3c0-11.4,9.2-20.7,20.7-20.7h106.8
	c11.4,0,20.7,9.2,20.7,20.7v63.4C243.2,103,234,112.3,222.7,112.3z"/>
<path fill="#FFFFFF" d="M255.5,161.7H90.2c-13.5,0-23.2-10.5-19.9-21.3l4.1-13.4c2.4-7.5,10.5-12.7,19.9-12.7h156.4
	c9.1,0,17.2,4.9,19.7,12.1l4.8,13.4C279,150.7,269.1,161.7,255.5,161.7z"/>
<path fill="#FED700" d="M253.2,122.3H118.3c-11.4,0-20.7-9.2-20.7-20.7V18.5c0-11.4,9.2-20.7,20.7-20.7h134.9
	c11.4,0,20.7,9.2,20.7,20.7v83.1C273.7,113,264.5,122.3,253.2,122.3z"/>
<path fill="#C3A707" d="M239.3,112.3h-107c-11.4,0-20.7-9.2-20.7-20.7V28.3c0-11.4,9.2-20.7,20.7-20.7h106.8
	c11.4,0,20.7,9.2,20.7,20.7v63.4C259.8,103,250.5,112.3,239.3,112.3z"/>
<path fill="#FED700" d="M268,161.7H102.7c-13.5,0-23.2-10.5-19.9-21.3L87,127c2.4-7.5,10.5-12.7,19.9-12.7h156.2
	c9.1,0,17.2,4.9,19.7,12.1l4.8,13.4C291.5,150.7,281.7,161.7,268,161.7z"/>
</svg>
