<?xml version="1.0" encoding="utf-8"?>
<!-- Generator: Adobe Illustrator 18.1.0, SVG Export Plug-In . SVG Version: 6.00 Build 0)  -->
<svg version="1.1" id="Layer_1" xmlns="http://www.w3.org/2000/svg" xmlns:xlink="http://www.w3.org/1999/xlink" x="0px" y="0px"
	 viewBox="106.3 46.6 111.4 194.9" enable-background="new 106.3 46.6 111.4 194.9" xml:space="preserve">
<path fill="#FED700" d="M194.5,241.5h-65c-12.9,0-23.2-10.3-23.2-23.2V69.7c0-12.9,10.3-23.2,23.2-23.2h65
	c12.9,0,23.2,10.3,23.2,23.2v148.6C217.7,231.2,207.4,241.5,194.5,241.5z"/>
<path fill="#C3A707" d="M185.6,215.9h-48.1c-12.6,0-22.8-10.2-22.8-22.8V77.9C114.7,65.4,125,55,137.6,55h48.1
	c12.6,0,22.8,10.2,22.8,22.8V193C208.4,205.6,198.2,215.9,185.6,215.9z"/>
<circle fill="#C3A707" cx="161.7" cy="227.1" r="7.6"/>
</svg>
