<?xml version="1.0" encoding="utf-8"?>
<!-- Generator: Adobe Illustrator 18.1.0, SVG Export Plug-In . SVG Version: 6.00 Build 0)  -->
<svg version="1.1" id="Layer_1" xmlns="http://www.w3.org/2000/svg" xmlns:xlink="http://www.w3.org/1999/xlink" x="0px" y="0px"
	 viewBox="0 0 78.8 137.9" enable-background="new 0 0 78.8 137.9" xml:space="preserve">
<path fill="#FED700" d="M62.4,137.9h-46c-9.1,0-16.4-7.3-16.4-16.4V16.4C0,7.3,7.3,0,16.4,0h46c9.1,0,16.4,7.3,16.4,16.4v105.1
	C78.8,130.6,71.5,137.9,62.4,137.9z"/>
<path fill="#C3A707" d="M56.1,119.8h-34c-8.9,0-16.1-7.2-16.1-16.1V22.2C5.9,13.3,13.2,6,22.1,6h34c8.9,0,16.1,7.2,16.1,16.1v81.5
	C72.2,112.5,65,119.8,56.1,119.8z"/>
<circle fill="#C3A707" cx="39.2" cy="127.7" r="5.4"/>
</svg>
