<?xml version="1.0" encoding="utf-8"?>
<!-- Generator: Adobe Illustrator 18.1.0, SVG Export Plug-In . SVG Version: 6.00 Build 0)  -->
<svg version="1.1" id="Layer_1" xmlns="http://www.w3.org/2000/svg" xmlns:xlink="http://www.w3.org/1999/xlink" x="0px" y="0px"
	 viewBox="37.4 8 131.7 164.6" enable-background="new 37.4 8 131.7 164.6" xml:space="preserve">
<g>
	<path fill="#FED700" d="M168.8,41.6L165,69.2c-4.5,9.6-8.1,0-8.1,0l3.7-28.3c3.4-30.2-26.2-25.8-26.2-25.8c-7.9-2.1,0-6.4,0-6.4
		C175,2.3,168.8,41.6,168.8,41.6z"/>
	<path fill="#FED700" d="M88.9,158.5c0,7.8-6.3,14.1-14.1,14.1s-14.1-6.3-14.1-14.1c0-7.8,6.3-14.1,14.1-14.1S88.9,150.7,88.9,158.5
		z"/>
	<path fill="#FED700" d="M155.2,38.7L144,124.9c-1.1,8.2-8.1,14.4-16.5,14.4H65.1c-8.3,0-15.4-6.2-16.5-14.4l-11-86.3
		c-1.3-9.9,6.4-18.7,16.5-18.7h84.9C148.7,19.9,156.5,28.8,155.2,38.7z"/>
	<path fill="#FED700" d="M139,158.5c0,7.8-6.3,14.1-14.1,14.1s-14.1-6.3-14.1-14.1c0-7.8,6.3-14.1,14.1-14.1
		C132.6,144.4,139,150.7,139,158.5z"/>
</g>
</svg>
