<?xml version="1.0" encoding="utf-8"?>
<!-- Generator: Adobe Illustrator 18.1.0, SVG Export Plug-In . SVG Version: 6.00 Build 0)  -->
<svg version="1.1" id="Layer_1" xmlns="http://www.w3.org/2000/svg" xmlns:xlink="http://www.w3.org/1999/xlink" x="0px" y="0px"
	 viewBox="15.9 8 159.8 199.5" enable-background="new 15.9 8 159.8 199.5" xml:space="preserve">
<g>
	<path fill="#FED700" d="M175.2,48.8l-4.5,33.4c-5.4,11.6-9.8,0-9.8,0l4.5-34.3c4.1-36.6-31.8-31.3-31.8-31.3c-9.6-2.5,0-7.8,0-7.8
		C182.8,1.1,175.2,48.8,175.2,48.8z"/>
	<path fill="#FED700" d="M78.3,190.5c0,9.4-7.7,17.1-17.1,17.1s-17.1-7.7-17.1-17.1s7.7-17.1,17.1-17.1
		C70.6,173.4,78.3,181.1,78.3,190.5z"/>
	<path fill="#FED700" d="M158.7,45.2l-13.5,104.6c-1.3,10-9.8,17.5-20,17.5H49.5c-10.1,0-18.7-7.5-20-17.5L16.1,45.2
		c-1.6-12,7.8-22.7,20-22.7h102.9C150.9,22.5,160.3,33.2,158.7,45.2z"/>
	<path fill="#FED700" d="M139.1,190.5c0,9.4-7.7,17.1-17.1,17.1s-17.1-7.7-17.1-17.1s7.7-17.1,17.1-17.1
		C131.4,173.4,139.1,181.1,139.1,190.5z"/>
</g>
</svg>
