<?xml version="1.0" encoding="utf-8"?>
<!-- Generator: Adobe Illustrator 18.1.0, SVG Export Plug-In . SVG Version: 6.00 Build 0)  -->
<svg version="1.1" id="Layer_1" xmlns="http://www.w3.org/2000/svg" xmlns:xlink="http://www.w3.org/1999/xlink" x="0px" y="0px"
	 viewBox="0 0 110.4 137.9" enable-background="new 0 0 110.4 137.9" xml:space="preserve">
<g>
	<path fill="#FED700" d="M110.1,28.2L107,51.3c-3.7,8-6.8,0-6.8,0l3.1-23.7C106.1,2.3,81.3,6,81.3,6c-6.6-1.7,0-5.4,0-5.4
		C115.3-4.8,110.1,28.2,110.1,28.2z"/>
	<path fill="#FED700" d="M43.1,126.1c0,6.5-5.3,11.8-11.8,11.8c-6.5,0-11.8-5.3-11.8-11.8c0-6.5,5.3-11.8,11.8-11.8
		C37.8,114.3,43.1,119.6,43.1,126.1z"/>
	<path fill="#FED700" d="M98.7,25.7l-9.3,72.3c-0.9,6.9-6.8,12.1-13.8,12.1H23.2c-7,0-12.9-5.2-13.8-12.1L0.1,25.7
		C-1,17.4,5.5,10,13.9,10h71.1C93.3,10,99.8,17.4,98.7,25.7z"/>
	<path fill="#FED700" d="M85.1,126.1c0,6.5-5.3,11.8-11.8,11.8c-6.5,0-11.8-5.3-11.8-11.8c0-6.5,5.3-11.8,11.8-11.8
		C79.8,114.3,85.1,119.6,85.1,126.1z"/>
</g>
</svg>
